<?xml version="1.0" encoding="utf-8"?>
<!-- Generator: Adobe Illustrator 19.2.1, SVG Export Plug-In . SVG Version: 6.00 Build 0)  -->
<svg version="1.1" id="background" xmlns="http://www.w3.org/2000/svg" xmlns:xlink="http://www.w3.org/1999/xlink" x="0px" y="0px"
	 viewBox="0 0 1280 800" style="enable-background:new 0 0 1280 800;" xml:space="preserve">
<style type="text/css">
	.st0{fill:#EE836F;}
	.st1{opacity:0.15;}
	.st2{fill:url(#SVGID_1_);}
	.st3{fill:url(#SVGID_2_);}
	.st4{fill:url(#SVGID_3_);}
	.st5{fill:url(#SVGID_4_);}
	.st6{fill:url(#SVGID_5_);}
	.st7{fill:url(#SVGID_6_);}
	.st8{fill:url(#SVGID_7_);}
	.st9{fill:url(#SVGID_8_);}
	.st10{fill:url(#SVGID_9_);}
	.st11{fill:url(#SVGID_10_);}
	.st12{fill:url(#SVGID_11_);}
	.st13{fill:url(#SVGID_12_);}
	.st14{fill:url(#SVGID_13_);}
	.st15{fill:url(#SVGID_14_);}
	.st16{fill:url(#SVGID_15_);}
	.st17{fill:url(#SVGID_16_);}
	.st18{fill:url(#SVGID_17_);}
	.st19{fill:url(#SVGID_18_);}
	.st20{fill:url(#SVGID_19_);}
	.st21{fill:url(#SVGID_20_);}
	.st22{fill:url(#SVGID_21_);}
	.st23{fill:url(#SVGID_22_);}
	.st24{fill:url(#SVGID_23_);}
	.st25{fill:url(#SVGID_24_);}
	.st26{fill:url(#SVGID_25_);}
	.st27{fill:url(#SVGID_26_);}
	.st28{fill:url(#SVGID_27_);}
	.st29{fill:url(#SVGID_28_);}
	.st30{fill:url(#SVGID_29_);}
	.st31{fill:url(#SVGID_30_);}
	.st32{fill:url(#SVGID_31_);}
	.st33{fill:url(#SVGID_32_);}
	.st34{fill:url(#SVGID_33_);}
	.st35{fill:url(#SVGID_34_);}
	.st36{fill:url(#SVGID_35_);}
	.st37{fill:url(#SVGID_36_);}
	.st38{fill:url(#SVGID_37_);}
	.st39{fill:url(#SVGID_38_);}
	.st40{fill:url(#SVGID_39_);}
	.st41{fill:url(#SVGID_40_);}
</style>
<rect class="st0" width="1280" height="800"/>
<g class="st1">
	<linearGradient id="SVGID_1_" gradientUnits="userSpaceOnUse" x1="-1.326043e-09" y1="829.5293" x2="1.325486e-09" y2="770.4707">
		<stop  offset="0.19" style="stop-color:#FCE6E2"/>
		<stop  offset="1" style="stop-color:#EE956F;stop-opacity:0.95"/>
	</linearGradient>
	<path class="st2" d="M0,770.5c-16.3,0-29.5,13.2-29.5,29.5s13.2,29.5,29.5,29.5s29.5-13.2,29.5-29.5S16.3,770.5,0,770.5z M0,817.5
		c-9.7,0-17.5-7.9-17.5-17.5s7.9-17.5,17.5-17.5s17.5,7.9,17.5,17.5S9.7,817.5,0,817.5z"/>
	<linearGradient id="SVGID_2_" gradientUnits="userSpaceOnUse" x1="-3.439709e-09" y1="876.5879" x2="3.437362e-09" y2="723.4121">
		<stop  offset="0.19" style="stop-color:#FCE6E2"/>
		<stop  offset="1" style="stop-color:#EE956F;stop-opacity:0.95"/>
	</linearGradient>
	<path class="st3" d="M0,723.4c-42.2,0-76.6,34.4-76.6,76.6s34.4,76.6,76.6,76.6s76.6-34.4,76.6-76.6S42.2,723.4,0,723.4z M0,864.6
		c-35.6,0-64.6-29-64.6-64.6s29-64.6,64.6-64.6s64.6,29,64.6,64.6S35.6,864.6,0,864.6z"/>
	<linearGradient id="SVGID_3_" gradientUnits="userSpaceOnUse" x1="-5.551556e-09" y1="923.6475" x2="5.551144e-09" y2="676.3525">
		<stop  offset="0.19" style="stop-color:#FCE6E2"/>
		<stop  offset="1" style="stop-color:#EE956F;stop-opacity:0.95"/>
	</linearGradient>
	<path class="st4" d="M0,676.4c-68.2,0-123.6,55.5-123.6,123.6S-68.2,923.6,0,923.6S123.6,868.2,123.6,800S68.2,676.4,0,676.4z
		 M0,911.6c-61.6,0-111.6-50.1-111.6-111.6S-61.6,688.4,0,688.4S111.6,738.4,111.6,800S61.6,911.6,0,911.6z"/>
	<linearGradient id="SVGID_4_" gradientUnits="userSpaceOnUse" x1="-7.665221e-09" y1="970.7061" x2="7.663019e-09" y2="629.2939">
		<stop  offset="0.19" style="stop-color:#FCE6E2"/>
		<stop  offset="1" style="stop-color:#EE956F;stop-opacity:0.95"/>
	</linearGradient>
	<path class="st5" d="M0,629.3c-94.1,0-170.7,76.6-170.7,170.7S-94.1,970.7,0,970.7S170.7,894.1,170.7,800S94.1,629.3,0,629.3z
		 M0,958.7c-87.5,0-158.7-71.2-158.7-158.7S-87.5,641.3,0,641.3S158.7,712.5,158.7,800S87.5,958.7,0,958.7z"/>
	<linearGradient id="SVGID_5_" gradientUnits="userSpaceOnUse" x1="-9.777068e-09" y1="1017.7646" x2="9.776713e-09" y2="582.2354">
		<stop  offset="0.19" style="stop-color:#FCE6E2"/>
		<stop  offset="1" style="stop-color:#EE956F;stop-opacity:0.95"/>
	</linearGradient>
	<path class="st6" d="M0,582.2c-58.2,0-112.9,22.7-154,63.8c-41.1,41.1-63.8,95.8-63.8,154s22.7,112.9,63.8,154
		c41.1,41.1,95.8,63.8,154,63.8s112.9-22.7,154-63.8c41.1-41.1,63.8-95.8,63.8-154S195.1,687.1,154,646
		C112.9,604.9,58.2,582.2,0,582.2z M0,1005.8c-113.5,0-205.8-92.3-205.8-205.8S-113.5,594.2,0,594.2S205.8,686.5,205.8,800
		S113.5,1005.8,0,1005.8z"/>
	<linearGradient id="SVGID_6_" gradientUnits="userSpaceOnUse" x1="-1.189073e-08" y1="1064.8232" x2="1.188859e-08" y2="535.1768">
		<stop  offset="0.19" style="stop-color:#FCE6E2"/>
		<stop  offset="1" style="stop-color:#EE956F;stop-opacity:0.95"/>
	</linearGradient>
	<path class="st7" d="M0,535.2c-70.7,0-137.2,27.5-187.3,77.6c-50,50-77.6,116.5-77.6,187.3s27.5,137.2,77.6,187.3
		c50,50,116.5,77.6,187.3,77.6s137.2-27.5,187.3-77.6c50-50,77.6-116.5,77.6-187.3s-27.5-137.2-77.6-187.3
		C137.2,562.7,70.7,535.2,0,535.2z M178.8,978.8c-47.8,47.8-111.2,74-178.8,74s-131-26.3-178.8-74s-74-111.2-74-178.8
		s26.3-131,74-178.8s111.2-74,178.8-74s131,26.3,178.8,74s74,111.2,74,178.8S226.5,931,178.8,978.8z"/>
	<linearGradient id="SVGID_7_" gradientUnits="userSpaceOnUse" x1="-1.400258e-08" y1="1111.8828" x2="1.400237e-08" y2="488.1172">
		<stop  offset="0.19" style="stop-color:#FCE6E2"/>
		<stop  offset="1" style="stop-color:#EE956F;stop-opacity:0.95"/>
	</linearGradient>
	<path class="st8" d="M0,488.1c-83.3,0-161.6,32.4-220.5,91.3c-58.9,58.9-91.3,137.2-91.3,220.5s32.4,161.6,91.3,220.5
		c58.9,58.9,137.2,91.3,220.5,91.3s161.6-32.4,220.5-91.3c58.9-58.9,91.3-137.2,91.3-220.5s-32.4-161.6-91.3-220.5
		C161.6,520.6,83.3,488.1,0,488.1z M212,1012c-56.6,56.6-131.9,87.8-212,87.8s-155.4-31.2-212-87.8c-56.6-56.6-87.8-131.9-87.8-212
		s31.2-155.4,87.8-212c56.6-56.6,131.9-87.8,212-87.8s155.4,31.2,212,87.8c56.6,56.6,87.8,131.9,87.8,212S268.7,955.4,212,1012z"/>
	<linearGradient id="SVGID_8_" gradientUnits="userSpaceOnUse" x1="-1.611625e-08" y1="1158.9414" x2="1.611425e-08" y2="441.0586">
		<stop  offset="0.19" style="stop-color:#FCE6E2"/>
		<stop  offset="1" style="stop-color:#EE956F;stop-opacity:0.95"/>
	</linearGradient>
	<path class="st9" d="M253.8,546.2c-33-33-71.3-58.8-114.1-76.9C95.5,450.5,48.5,441.1,0,441.1s-95.5,9.5-139.7,28.2
		c-42.7,18.1-81.1,44-114.1,76.9s-58.8,71.3-76.9,114.1c-18.7,44.3-28.2,91.3-28.2,139.7s9.5,95.5,28.2,139.7
		c18.1,42.7,44,81.1,76.9,114.1s71.3,58.8,114.1,76.9c44.3,18.7,91.3,28.2,139.7,28.2s95.5-9.5,139.7-28.2
		c42.7-18.1,81.1-44,114.1-76.9s58.8-71.3,76.9-114.1c18.7-44.3,28.2-91.3,28.2-139.7s-9.5-95.5-28.2-139.7
		C312.7,617.5,286.8,579.2,253.8,546.2z M245.3,1045.3C179.8,1110.9,92.7,1146.9,0,1146.9s-179.8-36.1-245.3-101.6
		c-65.5-65.5-101.6-152.7-101.6-245.3s36.1-179.8,101.6-245.3C-179.8,489.1-92.7,453.1,0,453.1s179.8,36.1,245.3,101.6
		c65.5,65.5,101.6,152.7,101.6,245.3S310.9,979.8,245.3,1045.3z"/>
	<linearGradient id="SVGID_9_" gradientUnits="userSpaceOnUse" x1="1280" y1="829.5293" x2="1280" y2="770.4707">
		<stop  offset="0.19" style="stop-color:#FCE6E2"/>
		<stop  offset="1" style="stop-color:#EE956F;stop-opacity:0.95"/>
	</linearGradient>
	<path class="st10" d="M1280,770.5c-16.3,0-29.5,13.2-29.5,29.5s13.2,29.5,29.5,29.5s29.5-13.2,29.5-29.5S1296.3,770.5,1280,770.5z
		 M1280,817.5c-9.7,0-17.5-7.9-17.5-17.5s7.9-17.5,17.5-17.5s17.5,7.9,17.5,17.5S1289.7,817.5,1280,817.5z"/>
	<linearGradient id="SVGID_10_" gradientUnits="userSpaceOnUse" x1="1280" y1="876.5879" x2="1280" y2="723.4121">
		<stop  offset="0.19" style="stop-color:#FCE6E2"/>
		<stop  offset="1" style="stop-color:#EE956F;stop-opacity:0.95"/>
	</linearGradient>
	<path class="st11" d="M1280,723.4c-42.2,0-76.6,34.4-76.6,76.6s34.4,76.6,76.6,76.6s76.6-34.4,76.6-76.6S1322.2,723.4,1280,723.4z
		 M1280,864.6c-35.6,0-64.6-29-64.6-64.6s29-64.6,64.6-64.6s64.6,29,64.6,64.6S1315.6,864.6,1280,864.6z"/>
	<linearGradient id="SVGID_11_" gradientUnits="userSpaceOnUse" x1="1280" y1="923.6475" x2="1280" y2="676.3525">
		<stop  offset="0.19" style="stop-color:#FCE6E2"/>
		<stop  offset="1" style="stop-color:#EE956F;stop-opacity:0.95"/>
	</linearGradient>
	<path class="st12" d="M1280,676.4c-68.2,0-123.6,55.5-123.6,123.6s55.5,123.6,123.6,123.6s123.6-55.5,123.6-123.6
		S1348.2,676.4,1280,676.4z M1280,911.6c-61.6,0-111.6-50.1-111.6-111.6s50.1-111.6,111.6-111.6s111.6,50.1,111.6,111.6
		S1341.6,911.6,1280,911.6z"/>
	<linearGradient id="SVGID_12_" gradientUnits="userSpaceOnUse" x1="1280" y1="970.7061" x2="1280" y2="629.2939">
		<stop  offset="0.19" style="stop-color:#FCE6E2"/>
		<stop  offset="1" style="stop-color:#EE956F;stop-opacity:0.95"/>
	</linearGradient>
	<path class="st13" d="M1280,629.3c-94.1,0-170.7,76.6-170.7,170.7s76.6,170.7,170.7,170.7s170.7-76.6,170.7-170.7
		S1374.1,629.3,1280,629.3z M1280,958.7c-87.5,0-158.7-71.2-158.7-158.7s71.2-158.7,158.7-158.7s158.7,71.2,158.7,158.7
		S1367.5,958.7,1280,958.7z"/>
	<linearGradient id="SVGID_13_" gradientUnits="userSpaceOnUse" x1="1280" y1="1017.7646" x2="1280" y2="582.2354">
		<stop  offset="0.19" style="stop-color:#FCE6E2"/>
		<stop  offset="1" style="stop-color:#EE956F;stop-opacity:0.95"/>
	</linearGradient>
	<path class="st14" d="M1280,582.2c-58.2,0-112.9,22.7-154,63.8c-41.1,41.1-63.8,95.8-63.8,154s22.7,112.9,63.8,154
		c41.1,41.1,95.8,63.8,154,63.8s112.9-22.7,154-63.8c41.1-41.1,63.8-95.8,63.8-154s-22.7-112.9-63.8-154
		C1392.9,604.9,1338.2,582.2,1280,582.2z M1280,1005.8c-113.5,0-205.8-92.3-205.8-205.8s92.3-205.8,205.8-205.8
		s205.8,92.3,205.8,205.8S1393.5,1005.8,1280,1005.8z"/>
	<linearGradient id="SVGID_14_" gradientUnits="userSpaceOnUse" x1="1280" y1="1064.8232" x2="1280" y2="535.1768">
		<stop  offset="0.19" style="stop-color:#FCE6E2"/>
		<stop  offset="1" style="stop-color:#EE956F;stop-opacity:0.95"/>
	</linearGradient>
	<path class="st15" d="M1280,535.2c-70.7,0-137.2,27.5-187.3,77.6c-50,50-77.6,116.5-77.6,187.3s27.5,137.2,77.6,187.3
		c50,50,116.5,77.6,187.3,77.6s137.2-27.5,187.3-77.6c50-50,77.6-116.5,77.6-187.3s-27.5-137.2-77.6-187.3
		C1417.2,562.7,1350.7,535.2,1280,535.2z M1458.8,978.8c-47.8,47.8-111.2,74-178.8,74s-131-26.3-178.8-74s-74-111.2-74-178.8
		s26.3-131,74-178.8s111.2-74,178.8-74s131,26.3,178.8,74s74,111.2,74,178.8S1506.5,931,1458.8,978.8z"/>
	<linearGradient id="SVGID_15_" gradientUnits="userSpaceOnUse" x1="1280" y1="1111.8828" x2="1280" y2="488.1172">
		<stop  offset="0.19" style="stop-color:#FCE6E2"/>
		<stop  offset="1" style="stop-color:#EE956F;stop-opacity:0.95"/>
	</linearGradient>
	<path class="st16" d="M1280,488.1c-83.3,0-161.6,32.4-220.5,91.3c-58.9,58.9-91.3,137.2-91.3,220.5s32.4,161.6,91.3,220.5
		c58.9,58.9,137.2,91.3,220.5,91.3s161.6-32.4,220.5-91.3c58.9-58.9,91.3-137.2,91.3-220.5s-32.4-161.6-91.3-220.5
		C1441.6,520.6,1363.3,488.1,1280,488.1z M1492,1012c-56.6,56.6-131.9,87.8-212,87.8s-155.4-31.2-212-87.8
		c-56.6-56.6-87.8-131.9-87.8-212s31.2-155.4,87.8-212c56.6-56.6,131.9-87.8,212-87.8s155.4,31.2,212,87.8
		c56.6,56.6,87.8,131.9,87.8,212S1548.7,955.4,1492,1012z"/>
	<linearGradient id="SVGID_16_" gradientUnits="userSpaceOnUse" x1="1280" y1="1158.9414" x2="1280" y2="441.0586">
		<stop  offset="0.19" style="stop-color:#FCE6E2"/>
		<stop  offset="1" style="stop-color:#EE956F;stop-opacity:0.95"/>
	</linearGradient>
	<path class="st17" d="M1533.8,546.2c-33-33-71.3-58.8-114.1-76.9c-44.3-18.7-91.3-28.2-139.7-28.2s-95.5,9.5-139.7,28.2
		c-42.7,18.1-81.1,44-114.1,76.9s-58.8,71.3-76.9,114.1c-18.7,44.3-28.2,91.3-28.2,139.7s9.5,95.5,28.2,139.7
		c18.1,42.7,44,81.1,76.9,114.1s71.3,58.8,114.1,76.9c44.3,18.7,91.3,28.2,139.7,28.2s95.5-9.5,139.7-28.2
		c42.7-18.1,81.1-44,114.1-76.9s58.8-71.3,76.9-114.1c18.7-44.3,28.2-91.3,28.2-139.7s-9.5-95.5-28.2-139.7
		C1592.7,617.5,1566.8,579.2,1533.8,546.2z M1525.3,1045.3c-65.5,65.5-152.7,101.6-245.3,101.6s-179.8-36.1-245.3-101.6
		C969.1,979.8,933.1,892.7,933.1,800s36.1-179.8,101.6-245.3c65.5-65.5,152.7-101.6,245.3-101.6s179.8,36.1,245.3,101.6
		c65.5,65.5,101.6,152.7,101.6,245.3S1590.9,979.8,1525.3,1045.3z"/>
	<linearGradient id="SVGID_17_" gradientUnits="userSpaceOnUse" x1="640" y1="1206" x2="640" y2="-406">
		<stop  offset="0.19" style="stop-color:#FCE6E2"/>
		<stop  offset="1" style="stop-color:#EE956F;stop-opacity:0.95"/>
	</linearGradient>
	<path class="st18" d="M1567.1,512.9c-37.3-37.3-80.7-66.6-129-87c-28.4-12-57.8-20.7-88-25.9c30.2-5.2,59.6-13.9,88-25.9
		c48.3-20.4,91.8-49.7,129-87c37.3-37.3,66.6-80.7,87-129C1675.3,108,1686,54.8,1686,0s-10.7-108-31.9-158
		c-20.4-48.3-49.7-91.8-87-129c-37.3-37.3-80.7-66.6-129-87c-50.1-21.2-103.2-31.9-158-31.9s-108,10.7-158,31.9
		c-48.3,20.4-91.8,49.7-129,87c-37.3,37.3-66.6,80.7-87,129C885.2-109,874.5-57,874-3.4L638.9-238.5L406-5.6
		c-0.7-52.8-11.4-104.1-31.9-152.5c-20.4-48.3-49.7-91.8-87-129c-37.3-37.3-80.7-66.6-129-87C108-395.3,54.8-406,0-406
		s-108,10.7-158,31.9c-48.3,20.4-91.8,49.7-129,87c-37.3,37.3-66.6,80.7-87,129C-395.3-108-406-54.8-406,0s10.7,108,31.9,158
		c20.4,48.3,49.7,91.8,87,129c37.3,37.3,80.7,66.6,129,87c28.4,12,57.8,20.7,88,25.9c-30.2,5.2-59.6,13.9-88,25.9
		c-48.3,20.4-91.8,49.7-129,87c-37.3,37.3-66.6,80.7-87,129C-395.3,692-406,745.2-406,800s10.7,108,31.9,158
		c20.4,48.3,49.7,91.8,87,129c37.3,37.3,80.7,66.6,129,87C-108,1195.3-54.8,1206,0,1206s108-10.7,158-31.9
		c48.3-20.4,91.8-49.7,129-87c37.3-37.3,66.6-80.7,87-129c20.5-48.4,31.2-99.7,31.9-152.6l233,233L874,803.3
		C874.4,857,885.2,909,905.9,958c20.4,48.3,49.7,91.8,87,129c37.3,37.3,80.7,66.6,129,87c50.1,21.2,103.2,31.9,158,31.9
		s108-10.7,158-31.9c48.3-20.4,91.8-49.7,129-87c37.3-37.3,66.6-80.7,87-129c21.2-50.1,31.9-103.2,31.9-158s-10.7-108-31.9-158
		C1633.6,593.6,1604.4,550.2,1567.1,512.9z M917-153.4c19.8-46.9,48.3-89.1,84.4-125.2c36.2-36.2,78.3-64.6,125.2-84.4
		c48.6-20.5,100.2-31,153.4-31s104.8,10.4,153.4,31c46.9,19.8,89.1,48.3,125.2,84.4c36.2,36.2,64.6,78.3,84.4,125.2
		c20.5,48.6,31,100.2,31,153.4s-10.4,104.8-31,153.4c-19.8,46.9-48.3,89.1-84.4,125.2c-36.2,36.2-78.3,64.6-125.2,84.4
		c-48.6,20.5-100.2,31-153.4,31s-104.8-10.4-153.4-31c-46.9-19.8-89.1-48.3-125.2-84.4c-36.2-36.2-64.6-78.3-84.4-125.2
		C896.4,104.8,886,53.2,886,0S896.4-104.8,917-153.4z M884,709.8L638.9,954.9L396.6,712.6c-5.3-24.1-12.8-47.7-22.5-70.6
		c-0.2-0.6-0.5-1.1-0.7-1.7c4.2,4.6,8.4,9.1,12.8,13.5c5.9,5.9,11.9,11.5,18.1,16.9l234.6,234.6L862.2,682l-0.1-0.1
		c11-8.7,21.6-18.1,31.6-28.1c4.4-4.4,8.7-8.9,12.8-13.5c-0.2,0.6-0.5,1.1-0.7,1.7C896.6,664,889.3,686.7,884,709.8z M70,400
		c6.7-1.2,13.3-2.5,20-4v8C83.4,402.5,76.7,401.2,70,400z M102,393.1c12.1-3.1,24.2-6.9,36-11.2v36.1c-11.8-4.3-23.9-8-36-11.2
		V393.1z M150,377.4c2.7-1.1,5.4-2.2,8-3.3c9.2-3.9,18.2-8.1,27-12.6v77c-8.8-4.5-17.8-8.7-27-12.6c-2.7-1.1-5.3-2.2-8-3.3V377.4z
		 M197,355.1c12-6.7,23.7-14,35-21.8v133.5c-11.3-7.9-23-15.2-35-21.8V355.1z M244,324.5c12.2-9.2,23.8-19,35-29.6v210.1
		c-11.2-10.6-22.8-20.4-35-29.6V324.5z M396.6,87.3L638.9-155L884,90.1c5.3,23.2,12.6,45.9,21.9,67.9c0.2,0.6,0.5,1.1,0.7,1.7
		c-4.2-4.6-8.4-9.1-12.8-13.5c-10.1-10.1-20.6-19.5-31.7-28.2l0.1-0.1L638.9-105.4L403.6,129.9c-6,5.2-11.8,10.7-17.4,16.3
		c-4.4,4.4-8.7,8.9-12.8,13.5c0.2-0.6,0.5-1.1,0.7-1.7C383.8,135.1,391.3,111.5,396.6,87.3z M625.3,758.6l13.6,13.6l13.5-13.5
		c18.9-0.6,37.5-2.7,55.8-6.3l-69.4,69.4l-69.9-69.9C587.5,755.6,606.3,757.9,625.3,758.6z M546.9,746.7l92.1,92.1l91.3-91.3
		c16.8-4.4,33.4-10,49.5-16.8c11.2-4.7,22.1-10,32.7-15.8L638.9,888.4L462.8,712.2c12.1,6.9,24.6,13.1,37.5,18.5
		C515.5,737.2,531,742.5,546.9,746.7z M640,746.9c-84.5,0-164.4-30-227.5-85l-0.6-0.6l0,0c-5.9-5.1-11.6-10.5-17.1-16
		C329.1,579.8,293.1,492.7,293.1,400c0-92.7,36.1-179.8,101.6-245.3C460.2,89.1,547.3,53.1,640,53.1s179.8,36.1,245.3,101.6
		c54.7,54.7,88.9,124.5,98.7,200v90.7c-9.8,75.5-44,145.2-98.7,200C819.8,710.9,732.7,746.9,640,746.9z M652.5,41.3l-13.6-13.6
		l-13.7,13.7c-19,0.8-37.8,3-56.3,6.7l70-70l69.5,69.5C690.1,44,671.4,41.9,652.5,41.3z M730.3,52.5l-91.4-91.4l-92.2,92.2
		c-15.8,4.2-31.3,9.5-46.5,16c-13,5.5-25.5,11.7-37.7,18.6L638.9-88.4L812.5,85.2C801.9,79.3,791,74,779.7,69.3
		C763.6,62.4,747.1,56.9,730.3,52.5z M984,278v19.2c-3.2-10.7-6.9-21.2-11.1-31.6c3.6,4.2,7.4,8.3,11.2,12.4H984z M291,315.8v-32.7
		c5.5-5.7,10.9-11.5,16.1-17.5C300.5,282,295.1,298.7,291,315.8z M291,484.2c4.1,17.1,9.5,33.8,16.1,50.2
		c-5.2-6-10.6-11.8-16.1-17.5V484.2z M984,502.8V522h0.1c-3.8,4.1-7.6,8.2-11.2,12.4C977.1,524,980.8,513.5,984,502.8z M996,446.2
		c1.9-15.2,2.9-30.6,2.9-46.2s-1-31-2.9-46.2v-63.7c11.1,10.9,22.8,21.1,35,30.6v158.6c-12.2,9.5-23.9,19.7-35,30.6V446.2z
		 M1043,329.7c11.3,8.1,22.9,15.7,35,22.6v95.4c-12.1,6.9-23.7,14.5-35,22.6V329.7z M1090,358.9c10.4,5.5,21,10.6,32,15.2
		c1,0.4,2,0.8,3,1.3v49.3c-1,0.4-2,0.8-3,1.3c-10.9,4.6-21.6,9.7-32,15.2V358.9z M1137,380.1c11.8,4.5,23.9,8.4,36,11.7v16.5
		c-12.1,3.3-24.2,7.2-36,11.7V380.1z M1185,394.8c8.3,2,16.6,3.7,25,5.2c-8.4,1.5-16.7,3.2-25,5.2V394.8z M874.2,13.8
		c0.6,18.6,2.5,37,5.6,55.2L638.9-172L400.6,66.3c3-18,4.7-36.3,5.2-54.8l233.1-233.1L874.2,13.8z M-153.4,363
		c-46.9-19.8-89.1-48.3-125.2-84.4c-36.2-36.2-64.6-78.3-84.4-125.2C-383.6,104.8-394,53.2-394,0s10.4-104.8,31-153.4
		c19.8-46.9,48.3-89.1,84.4-125.2c36.2-36.2,78.3-64.6,125.2-84.4c48.6-20.5,100.2-31,153.4-31s104.8,10.4,153.4,31
		c46.9,19.8,89.1,48.3,125.2,84.4c36.2,36.2,64.6,78.3,84.4,125.2C383.6-104.8,394-53.2,394,0s-10.4,104.8-31,153.4
		c-19.7,46.7-48,88.6-83.9,124.6H279v0.2c-0.1,0.1-0.3,0.3-0.4,0.4c-36.2,36.2-78.3,64.6-125.2,84.4C104.8,383.6,53.2,394,0,394
		S-104.8,383.6-153.4,363z M363,953.4c-19.8,46.9-48.3,89.1-84.4,125.2c-36.2,36.2-78.3,64.6-125.2,84.4
		c-48.6,20.5-100.2,31-153.4,31s-104.8-10.4-153.4-31c-46.9-19.8-89.1-48.3-125.2-84.4c-36.2-36.2-64.6-78.3-84.4-125.2
		c-20.5-48.6-31-100.2-31-153.4s10.4-104.8,31-153.4c19.8-46.9,48.3-89.1,84.4-125.2c36.2-36.2,78.3-64.6,125.2-84.4
		c48.6-20.5,100.2-31,153.4-31s104.8,10.4,153.4,31c46.9,19.8,89.1,48.3,125.2,84.4c0.1,0.1,0.3,0.3,0.4,0.4v0.2h0.2
		c35.9,36.1,64.1,78,83.9,124.6c20.5,48.6,31,100.2,31,153.4S383.6,904.8,363,953.4z M405.8,788.4c-0.5-18.5-2.3-36.8-5.2-54.8
		l238.3,238.3L879.8,731c-3.1,18.1-5,36.6-5.6,55.2l-235.3,235.3L405.8,788.4z M1643,953.4c-19.8,46.9-48.3,89.1-84.4,125.2
		c-36.2,36.2-78.3,64.6-125.2,84.4c-48.6,20.5-100.2,31-153.4,31s-104.8-10.4-153.4-31c-46.9-19.8-89.1-48.3-125.2-84.4
		c-36.2-36.2-64.6-78.3-84.4-125.2c-20.5-48.6-31-100.2-31-153.4s10.4-104.8,31-153.4c19.8-46.9,48.3-89.1,84.4-125.2
		c36.2-36.2,78.3-64.6,125.2-84.4c48.6-20.5,100.2-31,153.4-31s104.8,10.4,153.4,31c46.9,19.8,89.1,48.3,125.2,84.4
		c36.2,36.2,64.6,78.3,84.4,125.2c20.5,48.6,31,100.2,31,153.4S1663.6,904.8,1643,953.4z"/>
	<linearGradient id="SVGID_18_" gradientUnits="userSpaceOnUse" x1="-1.326043e-09" y1="29.5293" x2="1.325486e-09" y2="-29.5293">
		<stop  offset="0.19" style="stop-color:#FCE6E2"/>
		<stop  offset="1" style="stop-color:#EE956F;stop-opacity:0.95"/>
	</linearGradient>
	<path class="st19" d="M0-29.5c-16.3,0-29.5,13.2-29.5,29.5S-16.3,29.5,0,29.5S29.5,16.3,29.5,0S16.3-29.5,0-29.5z M0,17.5
		c-9.7,0-17.5-7.9-17.5-17.5S-9.7-17.5,0-17.5S17.5-9.7,17.5,0S9.7,17.5,0,17.5z"/>
	<linearGradient id="SVGID_19_" gradientUnits="userSpaceOnUse" x1="-3.437890e-09" y1="76.5884" x2="3.439224e-09" y2="-76.5884">
		<stop  offset="0.19" style="stop-color:#FCE6E2"/>
		<stop  offset="1" style="stop-color:#EE956F;stop-opacity:0.95"/>
	</linearGradient>
	<path class="st20" d="M0-76.6c-42.2,0-76.6,34.4-76.6,76.6S-42.2,76.6,0,76.6S76.6,42.2,76.6,0S42.2-76.6,0-76.6z M0,64.6
		c-35.6,0-64.6-29-64.6-64.6s29-64.6,64.6-64.6S64.6-35.6,64.6,0S35.6,64.6,0,64.6z"/>
	<linearGradient id="SVGID_20_" gradientUnits="userSpaceOnUse" x1="-5.551556e-09" y1="123.647" x2="5.551100e-09" y2="-123.647">
		<stop  offset="0.19" style="stop-color:#FCE6E2"/>
		<stop  offset="1" style="stop-color:#EE956F;stop-opacity:0.95"/>
	</linearGradient>
	<path class="st21" d="M0-123.6c-68.2,0-123.6,55.5-123.6,123.6S-68.2,123.6,0,123.6S123.6,68.2,123.6,0S68.2-123.6,0-123.6z
		 M0,111.6c-61.6,0-111.6-50.1-111.6-111.6S-61.6-111.6,0-111.6S111.6-61.6,111.6,0S61.6,111.6,0,111.6z"/>
	
		<linearGradient id="SVGID_21_" gradientUnits="userSpaceOnUse" x1="-7.663402e-09" y1="170.7061" x2="7.664838e-09" y2="-170.7061">
		<stop  offset="0.19" style="stop-color:#FCE6E2"/>
		<stop  offset="1" style="stop-color:#EE956F;stop-opacity:0.95"/>
	</linearGradient>
	<path class="st22" d="M0-170.7c-94.1,0-170.7,76.6-170.7,170.7S-94.1,170.7,0,170.7S170.7,94.1,170.7,0S94.1-170.7,0-170.7z
		 M0,158.7c-87.5,0-158.7-71.2-158.7-158.7S-87.5-158.7,0-158.7S158.7-87.5,158.7,0S87.5,158.7,0,158.7z"/>
	
		<linearGradient id="SVGID_22_" gradientUnits="userSpaceOnUse" x1="-9.777068e-09" y1="217.7646" x2="9.776713e-09" y2="-217.7646">
		<stop  offset="0.19" style="stop-color:#FCE6E2"/>
		<stop  offset="1" style="stop-color:#EE956F;stop-opacity:0.95"/>
	</linearGradient>
	<path class="st23" d="M154-154c-41.1-41.1-95.8-63.8-154-63.8s-112.9,22.7-154,63.8c-41.1,41.1-63.8,95.8-63.8,154
		s22.7,112.9,63.8,154c41.1,41.1,95.8,63.8,154,63.8s112.9-22.7,154-63.8c41.1-41.1,63.8-95.8,63.8-154S195.1-112.9,154-154z
		 M0,205.8c-113.5,0-205.8-92.3-205.8-205.8S-113.5-205.8,0-205.8S205.8-113.5,205.8,0S113.5,205.8,0,205.8z"/>
	
		<linearGradient id="SVGID_23_" gradientUnits="userSpaceOnUse" x1="-1.188891e-08" y1="264.8237" x2="1.189045e-08" y2="-264.8237">
		<stop  offset="0.19" style="stop-color:#FCE6E2"/>
		<stop  offset="1" style="stop-color:#EE956F;stop-opacity:0.95"/>
	</linearGradient>
	<path class="st24" d="M187.3-187.3c-50-50-116.5-77.6-187.3-77.6s-137.2,27.5-187.3,77.6c-50,50-77.6,116.5-77.6,187.3
		s27.5,137.2,77.6,187.3c50,50,116.5,77.6,187.3,77.6s137.2-27.5,187.3-77.6c50-50,77.6-116.5,77.6-187.3S237.3-137.2,187.3-187.3z
		 M178.8,178.8C131,226.5,67.5,252.8,0,252.8s-131-26.3-178.8-74.1c-47.8-47.8-74-111.2-74-178.8s26.3-131,74-178.8
		C-131-226.5-67.5-252.8,0-252.8s131,26.3,178.8,74.1c47.8,47.8,74,111.2,74,178.8S226.5,131,178.8,178.8z"/>
	
		<linearGradient id="SVGID_24_" gradientUnits="userSpaceOnUse" x1="-1.400258e-08" y1="311.8823" x2="1.400233e-08" y2="-311.8823">
		<stop  offset="0.19" style="stop-color:#FCE6E2"/>
		<stop  offset="1" style="stop-color:#EE956F;stop-opacity:0.95"/>
	</linearGradient>
	<path class="st25" d="M220.5-220.5C161.6-279.4,83.3-311.9,0-311.9s-161.6,32.4-220.5,91.3C-279.4-161.6-311.9-83.3-311.9,0
		s32.4,161.6,91.3,220.5c58.9,58.9,137.2,91.3,220.5,91.3s161.6-32.4,220.5-91.3C279.4,161.6,311.9,83.3,311.9,0
		S279.4-161.6,220.5-220.5z M212,212c-56.6,56.6-131.9,87.8-212,87.8s-155.4-31.2-212-87.8c-56.6-56.6-87.8-131.9-87.8-212
		s31.2-155.4,87.8-212c56.6-56.6,131.9-87.8,212-87.8s155.4,31.2,212,87.8c56.6,56.6,87.8,131.9,87.8,212S268.7,155.4,212,212z"/>
	
		<linearGradient id="SVGID_25_" gradientUnits="userSpaceOnUse" x1="-1.611443e-08" y1="358.9414" x2="1.611606e-08" y2="-358.9414">
		<stop  offset="0.19" style="stop-color:#FCE6E2"/>
		<stop  offset="1" style="stop-color:#EE956F;stop-opacity:0.95"/>
	</linearGradient>
	<path class="st26" d="M330.7,139.7C349.5,95.5,358.9,48.5,358.9,0s-9.5-95.5-28.2-139.7c-18.1-42.7-44-81.1-76.9-114.1
		c-33-33-71.3-58.8-114.1-76.9C95.5-349.5,48.5-358.9,0-358.9s-95.5,9.5-139.7,28.2c-42.7,18.1-81.1,44-114.1,76.9
		c-33,33-58.8,71.3-76.9,114.1C-349.5-95.5-358.9-48.5-358.9,0s9.5,95.5,28.2,139.7c18.1,42.7,44,81.1,76.9,114.1
		c33,33,71.3,58.8,114.1,76.9c44.3,18.7,91.3,28.2,139.7,28.2s95.5-9.5,139.7-28.2c42.7-18.1,81.1-44,114.1-76.9
		C286.8,220.8,312.7,182.5,330.7,139.7z M0,346.9c-92.7,0-179.8-36.1-245.3-101.6C-310.9,179.8-346.9,92.7-346.9,0
		s36.1-179.8,101.6-245.3C-179.8-310.9-92.7-346.9,0-346.9s179.8,36.1,245.3,101.6C310.9-179.8,346.9-92.7,346.9,0
		s-36.1,179.8-101.6,245.3C179.8,310.9,92.7,346.9,0,346.9z"/>
	<linearGradient id="SVGID_26_" gradientUnits="userSpaceOnUse" x1="1280" y1="29.5293" x2="1280" y2="-29.5293">
		<stop  offset="0.19" style="stop-color:#FCE6E2"/>
		<stop  offset="1" style="stop-color:#EE956F;stop-opacity:0.95"/>
	</linearGradient>
	<path class="st27" d="M1280,29.5c16.3,0,29.5-13.2,29.5-29.5s-13.2-29.5-29.5-29.5s-29.5,13.2-29.5,29.5S1263.7,29.5,1280,29.5z
		 M1280-17.5c9.7,0,17.5,7.9,17.5,17.5s-7.9,17.5-17.5,17.5s-17.5-7.9-17.5-17.5S1270.3-17.5,1280-17.5z"/>
	<linearGradient id="SVGID_27_" gradientUnits="userSpaceOnUse" x1="1280" y1="76.5884" x2="1280" y2="-76.5884">
		<stop  offset="0.19" style="stop-color:#FCE6E2"/>
		<stop  offset="1" style="stop-color:#EE956F;stop-opacity:0.95"/>
	</linearGradient>
	<path class="st28" d="M1280,76.6c42.2,0,76.6-34.4,76.6-76.6s-34.4-76.6-76.6-76.6s-76.6,34.4-76.6,76.6S1237.8,76.6,1280,76.6z
		 M1280-64.6c35.6,0,64.6,29,64.6,64.6s-29,64.6-64.6,64.6s-64.6-29-64.6-64.6S1244.4-64.6,1280-64.6z"/>
	<linearGradient id="SVGID_28_" gradientUnits="userSpaceOnUse" x1="1280" y1="123.647" x2="1280" y2="-123.647">
		<stop  offset="0.19" style="stop-color:#FCE6E2"/>
		<stop  offset="1" style="stop-color:#EE956F;stop-opacity:0.95"/>
	</linearGradient>
	<path class="st29" d="M1280,123.6c68.2,0,123.6-55.5,123.6-123.6s-55.5-123.6-123.6-123.6S1156.4-68.2,1156.4,0
		S1211.8,123.6,1280,123.6z M1280-111.6c61.6,0,111.6,50.1,111.6,111.6s-50.1,111.6-111.6,111.6S1168.4,61.6,1168.4,0
		S1218.4-111.6,1280-111.6z"/>
	<linearGradient id="SVGID_29_" gradientUnits="userSpaceOnUse" x1="1280" y1="170.7061" x2="1280" y2="-170.7061">
		<stop  offset="0.19" style="stop-color:#FCE6E2"/>
		<stop  offset="1" style="stop-color:#EE956F;stop-opacity:0.95"/>
	</linearGradient>
	<path class="st30" d="M1280,170.7c94.1,0,170.7-76.6,170.7-170.7s-76.6-170.7-170.7-170.7S1109.3-94.1,1109.3,0
		S1185.9,170.7,1280,170.7z M1280-158.7c87.5,0,158.7,71.2,158.7,158.7s-71.2,158.7-158.7,158.7S1121.3,87.5,1121.3,0
		S1192.5-158.7,1280-158.7z"/>
	<linearGradient id="SVGID_30_" gradientUnits="userSpaceOnUse" x1="1280" y1="217.7646" x2="1280" y2="-217.7646">
		<stop  offset="0.19" style="stop-color:#FCE6E2"/>
		<stop  offset="1" style="stop-color:#EE956F;stop-opacity:0.95"/>
	</linearGradient>
	<path class="st31" d="M1280,217.8c58.2,0,112.9-22.7,154-63.8c41.1-41.1,63.8-95.8,63.8-154s-22.7-112.9-63.8-154
		c-41.1-41.1-95.8-63.8-154-63.8s-112.9,22.7-154,63.8c-41.1,41.1-63.8,95.8-63.8,154s22.7,112.9,63.8,154
		C1167.1,195.1,1221.8,217.8,1280,217.8z M1280-205.8c113.5,0,205.8,92.3,205.8,205.8s-92.3,205.8-205.8,205.8
		S1074.2,113.5,1074.2,0S1166.5-205.8,1280-205.8z"/>
	<linearGradient id="SVGID_31_" gradientUnits="userSpaceOnUse" x1="1280" y1="264.8237" x2="1280" y2="-264.8237">
		<stop  offset="0.19" style="stop-color:#FCE6E2"/>
		<stop  offset="1" style="stop-color:#EE956F;stop-opacity:0.95"/>
	</linearGradient>
	<path class="st32" d="M1280,264.8c70.7,0,137.2-27.5,187.3-77.6c50-50,77.6-116.5,77.6-187.3s-27.5-137.2-77.6-187.3
		c-50-50-116.5-77.6-187.3-77.6s-137.2,27.5-187.3,77.6c-50,50-77.6,116.5-77.6,187.3s27.5,137.2,77.6,187.3
		C1142.8,237.3,1209.3,264.8,1280,264.8z M1101.2-178.8c47.8-47.8,111.2-74.1,178.8-74.1s131,26.3,178.8,74.1
		c47.8,47.8,74,111.2,74,178.8s-26.3,131-74,178.8c-47.8,47.8-111.2,74.1-178.8,74.1s-131-26.3-178.8-74.1
		c-47.8-47.8-74-111.2-74-178.8S1053.5-131,1101.2-178.8z"/>
	<linearGradient id="SVGID_32_" gradientUnits="userSpaceOnUse" x1="1280" y1="311.8823" x2="1280" y2="-311.8823">
		<stop  offset="0.19" style="stop-color:#FCE6E2"/>
		<stop  offset="1" style="stop-color:#EE956F;stop-opacity:0.95"/>
	</linearGradient>
	<path class="st33" d="M1280,311.9c83.3,0,161.6-32.4,220.5-91.3c58.9-58.9,91.3-137.2,91.3-220.5s-32.4-161.6-91.3-220.5
		c-58.9-58.9-137.2-91.3-220.5-91.3s-161.6,32.4-220.5,91.3C1000.6-161.6,968.1-83.3,968.1,0s32.4,161.6,91.3,220.5
		C1118.4,279.4,1196.7,311.9,1280,311.9z M1068-212c56.6-56.6,131.9-87.8,212-87.8s155.4,31.2,212,87.8
		c56.6,56.6,87.8,131.9,87.8,212s-31.2,155.4-87.8,212c-56.6,56.6-131.9,87.8-212,87.8s-155.4-31.2-212-87.8
		c-56.6-56.6-87.8-131.9-87.8-212S1011.3-155.4,1068-212z"/>
	<linearGradient id="SVGID_33_" gradientUnits="userSpaceOnUse" x1="1280" y1="358.9414" x2="1280" y2="-358.9414">
		<stop  offset="0.19" style="stop-color:#FCE6E2"/>
		<stop  offset="1" style="stop-color:#EE956F;stop-opacity:0.95"/>
	</linearGradient>
	<path class="st34" d="M1026.2,253.8c33,33,71.3,58.8,114.1,76.9c44.3,18.7,91.3,28.2,139.7,28.2s95.5-9.5,139.7-28.2
		c42.7-18.1,81.1-44,114.1-76.9c33-33,58.8-71.3,76.9-114.1c18.7-44.3,28.2-91.3,28.2-139.7s-9.5-95.5-28.2-139.7
		c-18.1-42.7-44-81.1-76.9-114.1c-33-33-71.3-58.8-114.1-76.9c-44.3-18.7-91.3-28.2-139.7-28.2s-95.5,9.5-139.7,28.2
		c-42.7,18.1-81.1,44-114.1,76.9c-33,33-58.8,71.3-76.9,114.1C930.5-95.5,921.1-48.5,921.1,0s9.5,95.5,28.2,139.7
		C967.3,182.5,993.2,220.8,1026.2,253.8z M1034.7-245.3c65.5-65.5,152.7-101.6,245.3-101.6s179.8,36.1,245.3,101.6
		c65.5,65.5,101.6,152.7,101.6,245.3s-36.1,179.8-101.6,245.3c-65.5,65.5-152.7,101.6-245.3,101.6s-179.8-36.1-245.3-101.6
		C969.1,179.8,933.1,92.7,933.1,0S969.1-179.8,1034.7-245.3z"/>
	<linearGradient id="SVGID_34_" gradientUnits="userSpaceOnUse" x1="640" y1="429.5293" x2="640" y2="370.4707">
		<stop  offset="0.19" style="stop-color:#FCE6E2"/>
		<stop  offset="1" style="stop-color:#EE956F;stop-opacity:0.95"/>
	</linearGradient>
	<path class="st35" d="M640,370.5c-16.3,0-29.5,13.2-29.5,29.5c0,16.3,13.2,29.5,29.5,29.5s29.5-13.2,29.5-29.5
		C669.5,383.7,656.3,370.5,640,370.5z M640,417.5c-9.7,0-17.5-7.9-17.5-17.5c0-9.7,7.9-17.5,17.5-17.5s17.5,7.9,17.5,17.5
		C657.5,409.7,649.7,417.5,640,417.5z"/>
	<linearGradient id="SVGID_35_" gradientUnits="userSpaceOnUse" x1="640" y1="476.5879" x2="640" y2="323.4116">
		<stop  offset="0.19" style="stop-color:#FCE6E2"/>
		<stop  offset="1" style="stop-color:#EE956F;stop-opacity:0.95"/>
	</linearGradient>
	<path class="st36" d="M640,323.4c-42.2,0-76.6,34.4-76.6,76.6c0,42.2,34.4,76.6,76.6,76.6s76.6-34.4,76.6-76.6
		C716.6,357.8,682.2,323.4,640,323.4z M640,464.6c-35.6,0-64.6-29-64.6-64.6s29-64.6,64.6-64.6s64.6,29,64.6,64.6
		S675.6,464.6,640,464.6z"/>
	<linearGradient id="SVGID_36_" gradientUnits="userSpaceOnUse" x1="640" y1="523.6475" x2="640" y2="276.353">
		<stop  offset="0.19" style="stop-color:#FCE6E2"/>
		<stop  offset="1" style="stop-color:#EE956F;stop-opacity:0.95"/>
	</linearGradient>
	<path class="st37" d="M640,276.4c-68.2,0-123.6,55.5-123.6,123.6c0,68.2,55.5,123.6,123.6,123.6S763.6,468.2,763.6,400
		C763.6,331.8,708.2,276.4,640,276.4z M640,511.6c-61.6,0-111.6-50.1-111.6-111.6S578.4,288.4,640,288.4S751.6,338.4,751.6,400
		S701.6,511.6,640,511.6z"/>
	<linearGradient id="SVGID_37_" gradientUnits="userSpaceOnUse" x1="640" y1="570.7061" x2="640" y2="229.2939">
		<stop  offset="0.19" style="stop-color:#FCE6E2"/>
		<stop  offset="1" style="stop-color:#EE956F;stop-opacity:0.95"/>
	</linearGradient>
	<path class="st38" d="M640,229.3c-94.1,0-170.7,76.6-170.7,170.7c0,94.1,76.6,170.7,170.7,170.7S810.7,494.1,810.7,400
		C810.7,305.9,734.1,229.3,640,229.3z M640,558.7c-87.5,0-158.7-71.2-158.7-158.7S552.5,241.3,640,241.3S798.7,312.5,798.7,400
		S727.5,558.7,640,558.7z"/>
	<linearGradient id="SVGID_38_" gradientUnits="userSpaceOnUse" x1="640" y1="617.7646" x2="640" y2="182.2354">
		<stop  offset="0.19" style="stop-color:#FCE6E2"/>
		<stop  offset="1" style="stop-color:#EE956F;stop-opacity:0.95"/>
	</linearGradient>
	<path class="st39" d="M794,246c-41.1-41.1-95.8-63.8-154-63.8S527.1,204.9,486,246c-41.1,41.1-63.8,95.8-63.8,154
		s22.7,112.9,63.8,154c41.1,41.1,95.8,63.8,154,63.8s112.9-22.7,154-63.8c41.1-41.1,63.8-95.8,63.8-154S835.1,287.1,794,246z
		 M640,605.8c-113.5,0-205.8-92.3-205.8-205.8S526.5,194.2,640,194.2S845.8,286.5,845.8,400S753.5,605.8,640,605.8z"/>
	<linearGradient id="SVGID_39_" gradientUnits="userSpaceOnUse" x1="640" y1="664.8232" x2="640" y2="135.1763">
		<stop  offset="0.19" style="stop-color:#FCE6E2"/>
		<stop  offset="1" style="stop-color:#EE956F;stop-opacity:0.95"/>
	</linearGradient>
	<path class="st40" d="M827.3,212.7c-50-50-116.5-77.6-187.3-77.6s-137.2,27.5-187.3,77.6c-50,50-77.6,116.5-77.6,187.3
		c0,70.7,27.5,137.2,77.6,187.3c50,50,116.5,77.6,187.3,77.6s137.2-27.5,187.3-77.6c50-50,77.6-116.5,77.6-187.3
		C904.8,329.3,877.3,262.8,827.3,212.7z M818.8,578.8c-47.8,47.8-111.2,74-178.8,74s-131-26.3-178.8-74s-74-111.2-74-178.8
		c0-67.5,26.3-131,74-178.8c47.8-47.8,111.2-74.1,178.8-74.1s131,26.3,178.8,74.1c47.8,47.8,74,111.2,74,178.8
		C892.8,467.5,866.5,531,818.8,578.8z"/>
	<linearGradient id="SVGID_40_" gradientUnits="userSpaceOnUse" x1="640" y1="711.8828" x2="640" y2="88.1177">
		<stop  offset="0.19" style="stop-color:#FCE6E2"/>
		<stop  offset="1" style="stop-color:#EE956F;stop-opacity:0.95"/>
	</linearGradient>
	<path class="st41" d="M860.5,179.5C801.6,120.6,723.3,88.1,640,88.1s-161.6,32.4-220.5,91.3c-58.9,58.9-91.3,137.2-91.3,220.5
		s32.4,161.6,91.3,220.5c58.9,58.9,137.2,91.3,220.5,91.3s161.6-32.4,220.5-91.3c58.9-58.9,91.3-137.2,91.3-220.5
		S919.4,238.4,860.5,179.5z M852,612c-56.6,56.6-131.9,87.8-212,87.8S484.6,668.7,428,612c-56.6-56.6-87.8-131.9-87.8-212
		s31.2-155.4,87.8-212c56.6-56.6,131.9-87.8,212-87.8s155.4,31.2,212,87.8c56.6,56.6,87.8,131.9,87.8,212S908.7,555.4,852,612z"/>
</g>
<rect x="299.9" y="1181.9" class="st0" width="94.1" height="94.1"/>
</svg>
