<?xml version="1.0" encoding="utf-8"?>
<!-- Generator: Adobe Illustrator 19.2.1, SVG Export Plug-In . SVG Version: 6.00 Build 0)  -->
<svg version="1.1" id="Layer_1" xmlns="http://www.w3.org/2000/svg" xmlns:xlink="http://www.w3.org/1999/xlink" x="0px" y="0px"
	 viewBox="0 0 545 344" style="enable-background:new 0 0 545 344;" xml:space="preserve">
<style type="text/css">
	.st0{fill:#152B2F;}
	.st1{fill:#ED826F;}
</style>
<rect class="st0" width="545" height="344"/>
<g>
	<path class="st1" d="M209.1,105v150.2c1.6-0.3,3.2-0.7,4.7-1.2V109.3c-0.1-0.1-0.1-0.1-0.2-0.2C212.2,107.6,210.7,106.3,209.1,105z
		"/>
	<path class="st1" d="M137.4,218.2c0.9,0.2,1.9,0.3,2.8,0.4c0.6,0.1,1.3,0.1,1.9,0.1v-70.2c-1.6,0.1-3.2,0.2-4.7,0.5V218.2z"/>
	<path class="st1" d="M218.9,115.9c-0.3-0.4-0.5-0.9-0.8-1.3v137.8c1.2-0.5,2.3-1,3.4-1.6c0.5-0.2,0.9-0.5,1.4-0.7V103.5
		c-0.3,0.6-0.5,1.2-0.8,1.8C220.6,108.7,219.5,112.3,218.9,115.9z"/>
	<path class="st1" d="M109.6,174.1c-0.8,3-1.3,6.2-1.3,9.5c0,4.1,0.7,8,2,11.6c0.7,2.1,1.7,4.1,2.7,6c0.6,1.1,1.4,2.2,2.1,3.2v-41.7
		c-0.1,0.2-0.3,0.4-0.4,0.6C112.5,166.6,110.7,170.2,109.6,174.1z"/>
	<path class="st1" d="M119.4,158v51.2c1.5,1.4,3,2.6,4.7,3.7v-58.7c-1.2,0.8-2.3,1.6-3.4,2.5C120.3,157.2,119.9,157.6,119.4,158z"/>
	<path class="st1" d="M155.3,108.5v109.3c0.8,5,2.4,9.7,4.7,14V104.4c-1.5,1.1-2.9,2.3-4.3,3.6C155.6,108.2,155.4,108.4,155.3,108.5
		z"/>
	<path class="st1" d="M146.3,122.2v96.4c0.9-0.1,1.9-0.2,2.8-0.3c0.7-0.1,1.3-0.2,2-0.4V113.5c-0.4,0.5-0.7,1-1.1,1.6
		C148.5,117.3,147.3,119.7,146.3,122.2z"/>
	<path class="st1" d="M128.4,151.9v63.5c0.1,0,0.2,0.1,0.3,0.1c1.4,0.7,2.9,1.2,4.5,1.7V150c-1.6,0.5-3.1,1.1-4.5,1.8
		C128.5,151.8,128.5,151.8,128.4,151.9z"/>
	<path class="st1" d="M200.1,99.7V256c0.1,0,0.1,0,0.2,0c1.4,0,2.9-0.1,4.3-0.2c0.1,0,0.2,0,0.3,0V102.1c-1.5-0.9-3-1.6-4.5-2.3
		C200.2,99.8,200.2,99.8,200.1,99.7z"/>
	<path class="st1" d="M164.3,238.3c1.4,1.9,3,3.6,4.7,5.2V99.4c-1.6,0.7-3.2,1.4-4.7,2.3V238.3z"/>
	<path class="st1" d="M191.1,255.1c1.4,0.3,2.9,0.5,4.4,0.7c0.1,0,0.2,0,0.3,0V98.2c-1.5-0.5-3.1-0.8-4.7-1.1V255.1z"/>
	<path class="st1" d="M182.2,96.5v155.7c0.7,0.3,1.3,0.6,2,0.8c0.9,0.3,1.8,0.6,2.7,0.9V96.6c-0.9-0.1-1.8-0.1-2.8-0.1
		C183.5,96.5,182.8,96.5,182.2,96.5z"/>
	<path class="st1" d="M173.2,247.1c1.5,1.1,3.1,2.1,4.7,3.1V97c-1.6,0.2-3.2,0.6-4.7,1V247.1z"/>
	<path class="st1" d="M415.3,220.9c0.6-0.7,1.2-1.4,1.8-2.1c1-1.2,2-2.5,2.9-3.9v-70.5c-1.5-2.1-3-4.1-4.7-6L415.3,220.9
		L415.3,220.9z"/>
	<path class="st1" d="M298.7,284.1c1.6,0,3.2-0.1,4.7-0.2V87.3c-1.5-1.4-3.1-2.7-4.7-3.9V284.1z"/>
	<path class="st1" d="M307.7,283.5c1.6-0.2,3.2-0.5,4.7-0.8V98.2c-1.4-2.3-3-4.5-4.7-6.5V283.5z"/>
	<path class="st1" d="M289.8,283.5c1.4,0.2,2.8,0.3,4.3,0.4c0.2,0,0.3,0,0.5,0V80.7c-1.5-0.9-3.1-1.7-4.7-2.4L289.8,283.5
		L289.8,283.5z"/>
	<path class="st1" d="M271.8,74v204.3c0.2,0.1,0.4,0.2,0.6,0.3c1.4,0.6,2.7,1.1,4.1,1.7V74.5c-0.8-0.1-1.7-0.2-2.5-0.3
		C273.3,74.1,272.6,74.1,271.8,74z"/>
	<path class="st1" d="M316.7,281.6c1.6-0.5,3.2-1,4.7-1.5V102.3c-1.6,0.2-3.2,0.4-4.7,0.8V281.6z"/>
	<path class="st1" d="M388.4,121.1v117.3c1.6-0.5,3.2-1.1,4.7-1.7V122.8c-0.4-0.2-0.9-0.4-1.3-0.5
		C390.7,121.8,389.5,121.4,388.4,121.1z"/>
	<path class="st1" d="M280.8,75.3v206.3c1.2,0.3,2.3,0.6,3.5,0.9c0.4,0.1,0.8,0.2,1.2,0.3V76.7c-0.1,0-0.2-0.1-0.3-0.1
		C283.8,76.1,282.3,75.7,280.8,75.3z"/>
	<path class="st1" d="M379.4,118.9v121.6c0.1,0,0.2,0,0.3-0.1c1.5-0.2,3-0.5,4.4-0.9V119.9c-0.9-0.2-1.8-0.4-2.8-0.6
		C380.7,119.1,380.1,119,379.4,118.9z"/>
	<path class="st1" d="M397.3,234.7c1.6-0.8,3.2-1.7,4.7-2.7V127.4c-1.5-1-3.1-1.8-4.7-2.7V234.7z"/>
	<path class="st1" d="M352.5,115.4v140.3c1-1.5,2-3,2.9-4.6c0.6-1.1,1.3-2.3,1.8-3.5V119.4c-0.6,0.1-1.2,0.2-1.8,0.4
		C354.6,118.2,353.6,116.8,352.5,115.4z"/>
	<path class="st1" d="M361.5,118.7v122.1c1.6,0.2,3.1,0.4,4.7,0.4v-123c-1.4,0.1-2.9,0.2-4.3,0.4
		C361.8,118.6,361.6,118.6,361.5,118.7z"/>
	<path class="st1" d="M325.6,278.3c1.1-0.5,2.2-1.1,3.3-1.6c0.5-0.2,0.9-0.5,1.4-0.8V102.5c-1.5-0.2-3.1-0.4-4.7-0.4L325.6,278.3
		L325.6,278.3z"/>
	<path class="st1" d="M334.6,103.4v169.9c0.7-0.5,1.5-1,2.2-1.5c0.9-0.6,1.7-1.3,2.5-1.9V105.1c-1.1-0.5-2.1-0.9-3.3-1.3
		C335.6,103.7,335.1,103.6,334.6,103.4z"/>
	<path class="st1" d="M343.6,266.2c1.7-1.6,3.2-3.2,4.7-5V110.9c-1.5-1.3-3.1-2.5-4.7-3.5V266.2z"/>
	<path class="st1" d="M370.5,118.1v123.1c1.6,0,3.2-0.1,4.7-0.2V118.4c-1.5-0.1-2.9-0.2-4.4-0.2
		C370.7,118.1,370.6,118.1,370.5,118.1z"/>
	<path class="st1" d="M253.9,76.2v190c1.5,1.4,3.1,2.8,4.7,4.1V75c-1,0.2-2,0.4-3,0.7C255.1,75.9,254.5,76,253.9,76.2z"/>
	<path class="st1" d="M406.3,229.1c1.6-1.2,3.2-2.5,4.7-3.9l0,0v-91c-1.5-1.4-3.1-2.7-4.7-3.9V229.1z"/>
	<path class="st1" d="M236,86.1v152.7c0.1-0.2,0.3-0.4,0.4-0.6c1.1,3.6,2.6,7.1,4.3,10.4V82.5c-0.3,0.2-0.5,0.4-0.8,0.5
		C238.5,84,237.2,85.1,236,86.1z"/>
	<path class="st1" d="M244.9,80v175.8c1.5,2.1,3,4.1,4.7,6.1V77.8c-0.6,0.2-1.2,0.5-1.8,0.8C246.9,79,245.9,79.5,244.9,80z"/>
	<path class="st1" d="M424.2,151.4V208c1.3-2.5,2.4-5.1,3.4-7.8c1.7-4.7,2.8-9.7,3.2-14.9c0.2-1.8,0.2-3.6,0.2-5.5
		C431.1,169.5,428.6,159.9,424.2,151.4z"/>
	<path class="st1" d="M262.9,74.3v199c1.5,1,3.1,2,4.7,2.8V74c-0.9,0-1.7,0.1-2.6,0.1C264.3,74.2,263.6,74.2,262.9,74.3z"/>
	<path class="st1" d="M227,247.4c0.7-0.5,1.5-1.1,2.2-1.7c0.9-0.7,1.7-1.5,2.6-2.3V90.2c-1.7,1.8-3.3,3.8-4.7,5.9v151.3H227z"/>
</g>
</svg>
